<?xml version="1.0" encoding="iso-8859-1"?>
<!-- Generator: Adobe Illustrator 18.1.1, SVG Export Plug-In . SVG Version: 6.00 Build 0)  -->
<svg version="1.1" id="Capa_1" xmlns="http://www.w3.org/2000/svg" xmlns:xlink="http://www.w3.org/1999/xlink" x="0px" y="0px"
	 viewBox="0 0 472 472" style="enable-background:new 0 0 472 472;" xml:space="preserve">
<g>
	<g>
		<path style="fill:#010002;" d="M432.5,170.833c11,0,20.333-3.833,28-11.5s11.5-17,11.5-28s-3.833-20.333-11.5-28s-17-11.5-28-11.5
			s-20.333,3.833-28,11.5c-7.667,7.667-11.5,17-11.5,28s3.833,20.333,11.5,28S421.5,170.833,432.5,170.833z"/>
		<path style="fill:#010002;" d="M421,441.833l-412-245l-9,14l413,245c9.333,5.334,19.333,6.666,30,4s19-8.666,25-18l-14-9
			c-3.333,6-8.167,9.834-14.5,11.5S427,445.166,421,441.833z"/>
		<path style="fill:#010002;" d="M461,257.833l-70-41l-8-106c-1.333-13.334-7.333-23.667-18-31l-101-60c-12-8-25.167-10.667-39.5-8
			s-25.5,10-33.5,22c-9.333,14-11.333,28.333-6,43l27,91l-83,27c-11.333,4.667-18,13.333-20,26c-0.667,8,1.667,14.833,7,20.5
			c5.333,5.666,12.667,9.166,22,10.5c2,0,5.333-0.668,10-2l113-37c4.667-2,8.833-4.833,12.5-8.5s5.5-7.167,5.5-10.5
			c1.333-8,2-12.333,2-13l-18-62l68,41l9,59c0.667,10.667,5,18.333,13,23l89,52c4.667,2.666,9.667,3.166,15,1.5
			c5.333-1.668,9.333-5,12-10s3.167-10.168,1.5-15.5C468.826,264.5,465.659,260.5,461,257.833z"/>
	</g>
</g>
<g>
</g>
<g>
</g>
<g>
</g>
<g>
</g>
<g>
</g>
<g>
</g>
<g>
</g>
<g>
</g>
<g>
</g>
<g>
</g>
<g>
</g>
<g>
</g>
<g>
</g>
<g>
</g>
<g>
</g>
</svg>
