<?xml version="1.0" encoding="iso-8859-1"?>
<!-- Generator: Adobe Illustrator 18.1.1, SVG Export Plug-In . SVG Version: 6.00 Build 0)  -->
<svg version="1.1" id="Capa_1" xmlns="http://www.w3.org/2000/svg" xmlns:xlink="http://www.w3.org/1999/xlink" x="0px" y="0px"
	 viewBox="0 0 35.844 35.844" style="enable-background:new 0 0 35.844 35.844;" xml:space="preserve">
<g>
	<g>
		<path style="fill:#010002;" d="M17.922,0C8.04,0,0,8.04,0,17.922c0,9.883,8.04,17.922,17.922,17.922
			c9.883,0,17.922-8.039,17.922-17.922C35.844,8.04,27.805,0,17.922,0z M23.671,33.994c-1.601,0.572-3.308,0.914-5.088,0.982
			c6.535-7.674,5.321-18.029,5.099-19.563c1.709-0.669,3.75-1.193,6.045-1.274C30.07,15.894,31.372,25,23.671,33.994z
			 M14.143,28.721c-1.582-0.512-9.332-3.479-13.085-13.435c0.34-2.175,1.085-4.212,2.165-6.035
			c2.073,10.046,9.215,13.836,13.226,14.537C15.981,25.33,15.257,27.04,14.143,28.721z M18.135,18.712
			c0.374-0.334,2.078-1.786,4.75-2.969c0.27,2.05,1.178,12.065-5.43,19.241c-2.338-0.063-4.557-0.594-6.57-1.51
			C17.445,28.3,18.086,20.759,18.135,18.712z M17.687,17.998c-0.644-0.339-2.655-1.496-4.692-3.623
			c0.977-0.789,9.54-7.395,19.599-5.173c0.84,1.407,1.479,2.94,1.887,4.569C25.529,11.731,18.921,16.932,17.687,17.998z
			 M31.979,8.225C21.78,6.403,13.268,13.077,12.43,13.759c-1.054-1.198-2.076-2.665-2.884-4.414
			c1.223-1.09,8.109-6.626,19.368-4.489C30.078,5.837,31.109,6.97,31.979,8.225z M27.514,3.788
			C17.345,2.422,10.884,7.125,9.201,8.544C8.657,7.19,8.246,5.68,8.046,4.003c2.792-1.987,6.196-3.17,9.877-3.17
			C21.475,0.833,24.777,1.925,27.514,3.788z M7.28,4.575c1.321,9.11,8.585,13.398,10.022,14.162c-0.02,0.77-0.13,2.328-0.626,4.242
			C14.762,22.593,5.888,20.178,3.862,8.232C4.817,6.851,5.971,5.621,7.28,4.575z M0.833,17.921c0-0.299,0.03-0.589,0.045-0.884
			C4.747,25.75,11.617,28.723,13.646,29.43c-0.939,1.279-2.122,2.521-3.605,3.639C4.577,30.213,0.833,24.501,0.833,17.921z
			 M25.384,33.271c6.575-8.588,5.621-17.005,5.235-19.141c1.289,0.021,2.652,0.191,4.074,0.55c0.201,1.05,0.316,2.132,0.316,3.24
			C35.012,24.667,31.072,30.494,25.384,33.271z"/>
	</g>
</g>
<g>
</g>
<g>
</g>
<g>
</g>
<g>
</g>
<g>
</g>
<g>
</g>
<g>
</g>
<g>
</g>
<g>
</g>
<g>
</g>
<g>
</g>
<g>
</g>
<g>
</g>
<g>
</g>
<g>
</g>
</svg>
